<svg width="35" height="36" viewBox="0 0 35 36" fill="none" xmlns="http://www.w3.org/2000/svg">
  <path fill-rule="evenodd" clip-rule="evenodd"
    d="M3.5 7.11279C5.433 7.11279 7 5.54579 7 3.61279C7 1.6798 5.433 0.112793 3.5 0.112793C1.567 0.112793 0 1.6798 0 3.61279C0 5.54579 1.567 7.11279 3.5 7.11279ZM15.5825 12.1958C17.2734 11.1671 19.1879 10.6132 21 10.6132H24.5C29.3788 10.6132 35 14.6284 35 21.1132V35.1133H28V21.1132C28 19.0981 25.9212 17.6132 24.5 17.6132H21C19.5788 17.6132 17.5 19.0981 17.5 21.1132V35.1133H10.5V10.6132H14L15.5825 12.1958ZM0 10.6132V35.1133H7V10.6132H0Z"
    fill="white" />
</svg>