<svg width="43" height="40" viewBox="0 0 43 40" fill="none" xmlns="http://www.w3.org/2000/svg">
  <path fill-rule="evenodd" clip-rule="evenodd"
    d="M39.9991 5.50511L42.9464 5.84932L41.6215 8.50454C40.9755 9.79939 40.3287 11.0942 39.6814 12.3891C39.6046 12.6633 39.4697 12.9037 39.2701 13.2168C39.1868 13.3476 38.9019 13.7636 38.8886 13.7836C38.8134 13.8964 38.7578 13.9853 38.7177 14.0566V19.0327C38.7177 31.766 26.3949 39.8575 14.7574 39.8575C12.3761 39.8575 10.5668 39.7434 8.49512 39.2913C5.08575 38.5473 2.54851 37.0684 1.38746 34.4837L0.192126 31.8226L3.09708 31.5555C5.72503 31.3138 8.00354 30.8131 9.75332 30.1427C4.94954 29.3702 2.25752 27.2603 2.25752 23.298V21.2147H4.34085C4.79859 21.2147 5.21133 21.1776 5.58032 21.1094C1.97502 18.9538 0.169232 15.4958 0.169232 10.6994C0.168838 10.4949 0.168838 10.4949 0.167609 10.2764C0.154065 7.85876 0.283921 6.56697 0.945745 4.91828C1.3699 3.86164 1.983 2.88346 2.80814 1.98718L4.38025 0.279541L5.90872 2.02635C10.9457 7.78289 15.9249 11.2753 21.0087 11.6977C21.0304 6.38589 25.0449 2.36605 30.384 2.36605C32.8731 2.36605 35.1309 3.31082 36.9052 5.01439C37.8763 5.21393 38.9076 5.37765 39.9991 5.50511ZM35.393 8.95041L34.7543 8.80579L34.3133 8.32178C33.2468 7.15152 31.9082 6.53271 30.384 6.53271C27.3362 6.53271 25.1753 8.70435 25.1753 11.741C25.1753 12.2373 25.1624 12.5492 25.1006 12.959C24.8539 14.5945 23.9366 15.9077 22.0502 15.9077C15.8043 15.9077 10.1695 12.5617 4.67478 6.84679C4.39151 7.70789 4.32489 8.59303 4.33419 10.253C4.33544 10.475 4.33544 10.475 4.33588 10.6994C4.33588 14.9661 6.06445 17.2999 10.1572 18.6008L11.6095 19.0624V20.5862C11.6095 22.4341 9.85879 24.1736 7.29726 24.9527C8.47148 25.8436 10.8729 26.3244 14.7581 26.3244H16.8414V28.4077C16.8414 31.3926 13.4117 33.7297 8.23073 34.9501C9.92038 35.4677 12.1701 35.6909 14.7574 35.6909C24.3708 35.6909 34.5511 29.0062 34.5511 19.0327V13.8244C34.5511 13.2123 34.7285 12.6811 35.0232 12.1287C35.1385 11.9127 35.2654 11.7068 35.4219 11.472C35.4514 11.4278 35.5608 11.2676 35.6476 11.1395L35.8128 10.8093C36.0803 10.2742 36.3478 9.73914 36.6151 9.20406C36.1996 9.12536 35.7923 9.04082 35.393 8.95041Z"
    fill="white" />
</svg>